<svg xmlns="http://www.w3.org/2000/svg" version="1.1" xmlns:xlink="http://www.w3.org/1999/xlink" xmlns:svgjs="http://svgjs.dev/svgjs" width="1000" height="244" viewBox="0 0 1000 244"><g transform="matrix(1,0,0,1,-0.6060606060606233,-0.12060151355055382)"><svg viewBox="0 0 396 97" data-background-color="#ffffff" preserveAspectRatio="xMidYMid meet" height="244" width="1000" xmlns="http://www.w3.org/2000/svg" xmlns:xlink="http://www.w3.org/1999/xlink"><g id="tight-bounds" transform="matrix(1,0,0,1,0.2400000000000091,0.04794404432132637)"><svg viewBox="0 0 395.52 96.90411191135733" height="96.90411191135733" width="395.52"><g><svg viewBox="0 0 395.52 96.90411191135733" height="96.90411191135733" width="395.52"><g><svg viewBox="0 0 395.52 96.90411191135733" height="96.90411191135733" width="395.52"><g><svg viewBox="0 0 395.52 96.90411191135733" height="96.90411191135733" width="395.52"><g><svg viewBox="0 0 395.52 96.90411191135733" height="96.90411191135733" width="395.52"><rect width="395.52" height="96.90411191135733" x="0" y="0" opacity="1" fill="#c84b31" data-fill-palette-color="tertiary"></rect><g transform="matrix(1,0,0,1,23.607599999999998,23.607599999999998)"><svg width="348.3048" viewBox="0.8500000238418579 -35.75 252.6899871826172 36.04999923706055" height="49.68891191135734" data-palette-color="#ffffff"><path d="M29.65-35.5L29.65-32.4 17-32.4 17 0 13.5 0 13.5-32.4 0.85-32.4 0.85-35.5 29.65-35.5ZM48 0.25L48 0.25Q44.25 0.25 41.2-1.25 38.15-2.75 35.95-5.33 33.75-7.9 32.55-11.13 31.35-14.35 31.35-17.75L31.35-17.75Q31.35-21.3 32.6-24.53 33.85-27.75 36.12-30.28 38.4-32.8 41.45-34.27 44.5-35.75 48.05-35.75L48.05-35.75Q51.8-35.75 54.85-34.2 57.9-32.65 60.07-30.05 62.25-27.45 63.45-24.25 64.65-21.05 64.65-17.7L64.65-17.7Q64.65-14.15 63.4-10.93 62.15-7.7 59.9-5.18 57.65-2.65 54.6-1.2 51.55 0.25 48 0.25ZM34.85-17.75L34.85-17.75Q34.85-14.85 35.8-12.18 36.75-9.5 38.5-7.43 40.25-5.35 42.67-4.13 45.1-2.9 48-2.9L48-2.9Q51.05-2.9 53.47-4.17 55.9-5.45 57.62-7.58 59.35-9.7 60.25-12.35 61.15-15 61.15-17.75L61.15-17.75Q61.15-20.65 60.2-23.3 59.25-25.95 57.47-28.05 55.7-30.15 53.3-31.35 50.9-32.55 48-32.55L48-32.55Q45-32.55 42.57-31.3 40.15-30.05 38.42-27.93 36.7-25.8 35.77-23.15 34.85-20.5 34.85-17.75ZM106.2 0L102.69 0 102.69-28.9 89.84-6.45 87.65-6.45 74.75-28.9 74.75 0 71.25 0 71.25-35.5 74.84-35.5 88.7-11.2 102.65-35.5 106.2-35.5 106.2 0ZM150.04 0L146.54 0 146.54-28.9 133.69-6.45 131.49-6.45 118.59-28.9 118.59 0 115.09 0 115.09-35.5 118.69-35.5 132.54-11.2 146.49-35.5 150.04-35.5 150.04 0ZM155.09 0L169.94-35.5 172.89-35.5 187.64 0 183.94 0 179.34-11.1 163.39-11.1 158.84 0 155.09 0ZM164.14-13.85L178.54-13.85 171.39-31.4 164.14-13.85ZM214.69-31.65L212.99-28.85Q212.24-29.7 211.24-30.38 210.24-31.05 208.99-31.55 207.74-32.05 206.31-32.35 204.89-32.65 203.29-32.65L203.29-32.65Q198.64-32.65 196.46-30.88 194.29-29.1 194.29-26.05L194.29-26.05Q194.29-23.95 195.31-22.75 196.34-21.55 198.54-20.8 200.74-20.05 204.14-19.25L204.14-19.25Q207.94-18.45 210.69-17.35 213.44-16.25 214.94-14.38 216.44-12.5 216.44-9.3L216.44-9.3Q216.44-6.85 215.49-5.05 214.54-3.25 212.84-2.05 211.14-0.85 208.79-0.28 206.44 0.3 203.64 0.3L203.64 0.3Q200.89 0.3 198.36-0.28 195.84-0.85 193.59-1.98 191.34-3.1 189.39-4.85L189.39-4.85 191.14-7.7Q192.09-6.7 193.41-5.83 194.74-4.95 196.36-4.25 197.99-3.55 199.86-3.18 201.74-2.8 203.74-2.8L203.74-2.8Q207.99-2.8 210.36-4.35 212.74-5.9 212.74-8.95L212.74-8.95Q212.74-11.15 211.54-12.48 210.34-13.8 207.94-14.65 205.54-15.5 202.04-16.3L202.04-16.3Q198.34-17.15 195.79-18.2 193.24-19.25 191.96-20.98 190.69-22.7 190.69-25.55L190.69-25.55Q190.69-28.85 192.31-31.13 193.94-33.4 196.79-34.58 199.64-35.75 203.34-35.75L203.34-35.75Q205.69-35.75 207.71-35.27 209.74-34.8 211.46-33.9 213.19-33 214.69-31.65L214.69-31.65ZM236.89 0.25L236.89 0.25Q233.14 0.25 230.09-1.25 227.04-2.75 224.84-5.33 222.64-7.9 221.44-11.13 220.24-14.35 220.24-17.75L220.24-17.75Q220.24-21.3 221.49-24.53 222.74-27.75 225.01-30.28 227.29-32.8 230.34-34.27 233.39-35.75 236.94-35.75L236.94-35.75Q240.69-35.75 243.74-34.2 246.79-32.65 248.96-30.05 251.14-27.45 252.34-24.25 253.54-21.05 253.54-17.7L253.54-17.7Q253.54-14.15 252.29-10.93 251.04-7.7 248.79-5.18 246.54-2.65 243.49-1.2 240.44 0.25 236.89 0.25ZM223.74-17.75L223.74-17.75Q223.74-14.85 224.69-12.18 225.64-9.5 227.39-7.43 229.14-5.35 231.56-4.13 233.99-2.9 236.89-2.9L236.89-2.9Q239.94-2.9 242.36-4.17 244.79-5.45 246.51-7.58 248.24-9.7 249.14-12.35 250.04-15 250.04-17.75L250.04-17.75Q250.04-20.65 249.09-23.3 248.14-25.95 246.36-28.05 244.59-30.15 242.19-31.35 239.79-32.55 236.89-32.55L236.89-32.55Q233.89-32.55 231.46-31.3 229.04-30.05 227.31-27.93 225.59-25.8 224.66-23.15 223.74-20.5 223.74-17.75Z" opacity="1" transform="matrix(1,0,0,1,0,0)" fill="#ffffff" class="undefined-text-0" data-fill-palette-color="quaternary" id="text-0"></path></svg></g></svg></g></svg></g></svg></g><g></g></svg></g><defs></defs></svg><rect width="395.52" height="96.90411191135733" fill="none" stroke="none" visibility="hidden"></rect></g></svg></g></svg>